<?xml version="1.0" encoding="us-ascii" standalone="no"?><svg xmlns="http://www.w3.org/2000/svg" xmlns:xlink="http://www.w3.org/1999/xlink" contentStyleType="text/css" height="696px" preserveAspectRatio="none" style="width:670px;height:696px;background:#FFFFFF;" version="1.1" viewBox="0 0 670 696" width="670px" zoomAndPan="magnify"><defs/><g><text fill="#000000" font-family="Arial" font-size="14" font-weight="bold" lengthAdjust="spacing" textLength="348" x="154" y="22.9951">Setup &#8594; Execution &#8594; Presentation Workflow</text><!--cluster Setup--><g id="cluster_Setup"><path d="M8.5,182.0869 L55.5,182.0869 A3.75,3.75 0 0 1 58,184.5869 L65,204.3837 L426.5,204.3837 A2.5,2.5 0 0 1 429,206.8837 L429,400.1869 A2.5,2.5 0 0 1 426.5,402.6869 L8.5,402.6869 A2.5,2.5 0 0 1 6,400.1869 L6,184.5869 A2.5,2.5 0 0 1 8.5,182.0869 " fill="none" style="stroke:#000000;stroke-width:1.5;"/><line style="stroke:#000000;stroke-width:1.5;" x1="6" x2="65" y1="204.3837" y2="204.3837"/><text fill="#000000" font-family="Arial" font-size="14" font-weight="bold" lengthAdjust="spacing" textLength="46" x="10" y="197.082">Setup</text></g><!--cluster Execution--><g id="cluster_Execution"><path d="M455.5,182.0869 L533.5,182.0869 A3.75,3.75 0 0 1 536,184.5869 L543,204.3837 L660.5,204.3837 A2.5,2.5 0 0 1 663,206.8837 L663,561.4769 A2.5,2.5 0 0 1 660.5,563.9769 L455.5,563.9769 A2.5,2.5 0 0 1 453,561.4769 L453,184.5869 A2.5,2.5 0 0 1 455.5,182.0869 " fill="none" style="stroke:#000000;stroke-width:1.5;"/><line style="stroke:#000000;stroke-width:1.5;" x1="453" x2="543" y1="204.3837" y2="204.3837"/><text fill="#000000" font-family="Arial" font-size="14" font-weight="bold" lengthAdjust="spacing" textLength="77" x="457" y="197.082">Execution</text></g><!--cluster Presentation--><g id="cluster_Presentation"><path d="M141.5,451.6869 L243.5,451.6869 A3.75,3.75 0 0 1 246,454.1869 L253,473.9838 L426.5,473.9838 A2.5,2.5 0 0 1 429,476.4838 L429,686.7769 A2.5,2.5 0 0 1 426.5,689.2769 L141.5,689.2769 A2.5,2.5 0 0 1 139,686.7769 L139,454.1869 A2.5,2.5 0 0 1 141.5,451.6869 " fill="none" style="stroke:#000000;stroke-width:1.5;"/><line style="stroke:#000000;stroke-width:1.5;" x1="139" x2="253" y1="473.9838" y2="473.9838"/><text fill="#000000" font-family="Arial" font-size="14" font-weight="bold" lengthAdjust="spacing" textLength="101" x="143" y="466.682">Presentation</text></g><!--entity GematikSpec--><g id="elem_GematikSpec"><rect fill="#F1F1F1" height="46.2969" rx="2.5" ry="2.5" style="stroke:#181818;stroke-width:0.5;" width="196" x="22" y="217.0869"/><rect fill="#F1F1F1" height="10" style="stroke:#181818;stroke-width:0.5;" width="15" x="198" y="222.0869"/><rect fill="#F1F1F1" height="2" style="stroke:#181818;stroke-width:0.5;" width="4" x="196" y="224.0869"/><rect fill="#F1F1F1" height="2" style="stroke:#181818;stroke-width:0.5;" width="4" x="196" y="228.0869"/><text fill="#000000" font-family="Arial" font-size="14" lengthAdjust="spacing" textLength="156" x="37" y="250.082">Gematik Specifications</text></g><!--entity BSISpec--><g id="elem_BSISpec"><rect fill="#F1F1F1" height="46.2969" rx="2.5" ry="2.5" style="stroke:#181818;stroke-width:0.5;" width="161" x="252.5" y="217.0869"/><rect fill="#F1F1F1" height="10" style="stroke:#181818;stroke-width:0.5;" width="15" x="393.5" y="222.0869"/><rect fill="#F1F1F1" height="2" style="stroke:#181818;stroke-width:0.5;" width="4" x="391.5" y="224.0869"/><rect fill="#F1F1F1" height="2" style="stroke:#181818;stroke-width:0.5;" width="4" x="391.5" y="228.0869"/><text fill="#000000" font-family="Arial" font-size="14" lengthAdjust="spacing" textLength="121" x="267.5" y="250.082">BSI Specifications</text></g><!--entity SpecSource--><g id="elem_SpecSource"><rect fill="#F1F1F1" height="46.2969" rx="2.5" ry="2.5" style="stroke:#181818;stroke-width:0.5;" width="220" x="107" y="340.3869"/><rect fill="#F1F1F1" height="10" style="stroke:#181818;stroke-width:0.5;" width="15" x="307" y="345.3869"/><rect fill="#F1F1F1" height="2" style="stroke:#181818;stroke-width:0.5;" width="4" x="305" y="347.3869"/><rect fill="#F1F1F1" height="2" style="stroke:#181818;stroke-width:0.5;" width="4" x="305" y="351.3869"/><text fill="#000000" font-family="Arial" font-size="14" lengthAdjust="spacing" textLength="180" x="122" y="373.382">SpecificationSource Enum</text></g><!--entity ParseSpecs--><g id="elem_ParseSpecs"><rect fill="#F1F1F1" height="46.2969" rx="2.5" ry="2.5" style="stroke:#181818;stroke-width:0.5;" width="178" x="469" y="217.0869"/><rect fill="#F1F1F1" height="10" style="stroke:#181818;stroke-width:0.5;" width="15" x="627" y="222.0869"/><rect fill="#F1F1F1" height="2" style="stroke:#181818;stroke-width:0.5;" width="4" x="625" y="224.0869"/><rect fill="#F1F1F1" height="2" style="stroke:#181818;stroke-width:0.5;" width="4" x="625" y="228.0869"/><text fill="#000000" font-family="Arial" font-size="14" lengthAdjust="spacing" textLength="138" x="484" y="250.082">Parse Specifications</text></g><!--entity MatchAnnotations--><g id="elem_MatchAnnotations"><rect fill="#F1F1F1" height="46.2969" rx="2.5" ry="2.5" style="stroke:#181818;stroke-width:0.5;" width="169" x="468.5" y="340.3869"/><rect fill="#F1F1F1" height="10" style="stroke:#181818;stroke-width:0.5;" width="15" x="617.5" y="345.3869"/><rect fill="#F1F1F1" height="2" style="stroke:#181818;stroke-width:0.5;" width="4" x="615.5" y="347.3869"/><rect fill="#F1F1F1" height="2" style="stroke:#181818;stroke-width:0.5;" width="4" x="615.5" y="351.3869"/><text fill="#000000" font-family="Arial" font-size="14" lengthAdjust="spacing" textLength="129" x="483.5" y="373.382">Match Annotations</text></g><!--entity Annotation Data--><g id="elem_Annotation Data"><ellipse cx="552" cy="480.1869" fill="#F1F1F1" rx="8" ry="8" style="stroke:#181818;stroke-width:0.5;"/><path d="M552,488.1869 L552,515.1869 M539,496.1869 L565,496.1869 M552,515.1869 L539,530.1869 M552,515.1869 L565,530.1869 " fill="none" style="stroke:#181818;stroke-width:0.5;"/><text fill="#000000" font-family="Arial" font-size="14" lengthAdjust="spacing" textLength="111" x="496.5" y="544.682">Annotation Data</text></g><!--entity GenerateHTML--><g id="elem_GenerateHTML"><rect fill="#F1F1F1" height="46.2969" rx="2.5" ry="2.5" style="stroke:#181818;stroke-width:0.5;" width="258" x="155" y="486.6869"/><rect fill="#F1F1F1" height="10" style="stroke:#181818;stroke-width:0.5;" width="15" x="393" y="491.6869"/><rect fill="#F1F1F1" height="2" style="stroke:#181818;stroke-width:0.5;" width="4" x="391" y="493.6869"/><rect fill="#F1F1F1" height="2" style="stroke:#181818;stroke-width:0.5;" width="4" x="391" y="497.6869"/><text fill="#000000" font-family="Arial" font-size="14" lengthAdjust="spacing" textLength="218" x="170" y="519.682">Generate HTML Documentation</text></g><!--entity AuditDocs--><g id="elem_AuditDocs"><rect fill="#F1F1F1" height="46.2969" rx="2.5" ry="2.5" style="stroke:#181818;stroke-width:0.5;" width="174" x="176" y="626.9769"/><rect fill="#F1F1F1" height="10" style="stroke:#181818;stroke-width:0.5;" width="15" x="330" y="631.9769"/><rect fill="#F1F1F1" height="2" style="stroke:#181818;stroke-width:0.5;" width="4" x="328" y="633.9769"/><rect fill="#F1F1F1" height="2" style="stroke:#181818;stroke-width:0.5;" width="4" x="328" y="637.9769"/><text fill="#000000" font-family="Arial" font-size="14" lengthAdjust="spacing" textLength="134" x="191" y="659.972">HTML with CSS + JS</text></g><!--entity Auditor--><g id="elem_Auditor"><ellipse cx="95" cy="480.1869" fill="#F1F1F1" rx="8" ry="8" style="stroke:#181818;stroke-width:0.5;"/><path d="M95,488.1869 L95,515.1869 M82,496.1869 L108,496.1869 M95,515.1869 L82,530.1869 M95,515.1869 L108,530.1869 " fill="none" style="stroke:#181818;stroke-width:0.5;"/><text fill="#000000" font-family="Arial" font-size="14" lengthAdjust="spacing" textLength="49" x="70.5" y="544.682">Auditor</text></g><!--entity Developer--><g id="elem_Developer"><ellipse cx="333" cy="51.2969" fill="#F1F1F1" rx="8" ry="8" style="stroke:#181818;stroke-width:0.5;"/><path d="M333,59.2969 L333,86.2969 M320,67.2969 L346,67.2969 M333,86.2969 L320,101.2969 M333,86.2969 L346,101.2969 " fill="none" style="stroke:#181818;stroke-width:0.5;"/><text fill="#000000" font-family="Arial" font-size="14" lengthAdjust="spacing" textLength="71" x="297.5" y="115.792">Developer</text></g><!--link Developer to GematikSpec--><g id="link_Developer_GematikSpec"><path d="M297.35,108.2669 C256.25,138.6169 194.2264,184.4224 155.4064,213.0924 " fill="none" id="Developer-to-GematikSpec" style="stroke:#181818;stroke-width:1.0;"/><polygon fill="#181818" points="150.58,216.6569,160.196,214.5278,154.602,213.6865,155.4433,208.0925,150.58,216.6569" style="stroke:#181818;stroke-width:1.0;"/><text fill="#000000" font-family="Arial" font-size="13" lengthAdjust="spacing" textLength="62" x="241" y="162.1538">Download</text></g><!--link Developer to BSISpec--><g id="link_Developer_BSISpec"><path d="M333,119.2169 C333,149.5569 333,185.3869 333,210.8069 " fill="none" id="Developer-to-BSISpec" style="stroke:#181818;stroke-width:1.0;"/><polygon fill="#181818" points="333,216.8069,337,207.8069,333,211.8069,329,207.8069,333,216.8069" style="stroke:#181818;stroke-width:1.0;"/><text fill="#000000" font-family="Arial" font-size="13" lengthAdjust="spacing" textLength="62" x="334" y="162.1538">Download</text></g><!--link GematikSpec to SpecSource--><g id="link_GematikSpec_SpecSource"><path d="M138.02,263.7669 C155.44,285.5569 177.9431,313.6906 195.3331,335.4406 " fill="none" id="GematikSpec-to-SpecSource" style="stroke:#181818;stroke-width:1.0;"/><polygon fill="#181818" points="199.08,340.1269,196.5839,330.5996,195.9576,336.2217,190.3355,335.5954,199.08,340.1269" style="stroke:#181818;stroke-width:1.0;"/></g><!--link BSISpec to SpecSource--><g id="link_BSISpec_SpecSource"><path d="M311.45,263.7669 C290.62,285.5569 263.3769,314.0406 242.5769,335.7906 " fill="none" id="BSISpec-to-SpecSource" style="stroke:#181818;stroke-width:1.0;"/><polygon fill="#181818" points="238.43,340.1269,247.5412,336.387,241.8857,336.5133,241.7595,330.8579,238.43,340.1269" style="stroke:#181818;stroke-width:1.0;"/></g><!--link Developer to ParseSpecs--><g id="link_Developer_ParseSpecs"><path d="M368.65,106.8669 C411.9,137.0969 479.2425,184.1791 520.8825,213.2891 " fill="none" id="Developer-to-ParseSpecs" style="stroke:#181818;stroke-width:1.0;"/><polygon fill="#181818" points="525.8,216.7269,520.7156,208.2919,521.7021,213.8621,516.1319,214.8486,525.8,216.7269" style="stroke:#181818;stroke-width:1.0;"/><text fill="#000000" font-family="Arial" font-size="13" lengthAdjust="spacing" textLength="107" x="453" y="162.1538">Parse HTML Files</text></g><!--link ParseSpecs to MatchAnnotations--><g id="link_ParseSpecs_MatchAnnotations"><path d="M557.07,263.7669 C556.17,285.5569 555.0681,312.382 554.1681,334.132 " fill="none" id="ParseSpecs-to-MatchAnnotations" style="stroke:#181818;stroke-width:1.0;"/><polygon fill="#181818" points="553.92,340.1269,558.2887,331.2999,554.1267,335.1312,550.2955,330.9692,553.92,340.1269" style="stroke:#181818;stroke-width:1.0;"/><text fill="#000000" font-family="Arial" font-size="13" lengthAdjust="spacing" textLength="82" x="556" y="306.4538">Match Specs</text></g><!--link MatchAnnotations to Annotation Data--><g id="link_MatchAnnotations_Annotation Data"><path d="M552.84,387.0769 C552.69,409.5969 552.4927,438.587 552.3027,465.297 " fill="none" id="MatchAnnotations-to-Annotation Data" style="stroke:#181818;stroke-width:1.0;"/><polygon fill="#181818" points="552.26,471.2969,556.3239,462.3256,552.2956,466.297,548.3241,462.2686,552.26,471.2969" style="stroke:#181818;stroke-width:1.0;"/><text fill="#000000" font-family="Arial" font-size="13" lengthAdjust="spacing" textLength="93" x="553" y="431.7538">Extract Details</text></g><!--link MatchAnnotations to GenerateHTML--><g id="link_MatchAnnotations_GenerateHTML"><path d="M502.42,387.1569 C482.19,396.5169 458.79,407.7269 438,418.6869 C397.02,440.2669 356.5127,464.2631 325.6327,483.0931 " fill="none" id="MatchAnnotations-to-GenerateHTML" style="stroke:#181818;stroke-width:1.0;"/><polygon fill="#181818" points="320.51,486.2169,330.2766,484.9464,324.7789,483.6138,326.1116,478.1161,320.51,486.2169" style="stroke:#181818;stroke-width:1.0;"/><text fill="#000000" font-family="Arial" font-size="13" lengthAdjust="spacing" textLength="104" x="439" y="431.7538">Data Integration</text></g><!--link GenerateHTML to AuditDocs--><g id="link_GenerateHTML_AuditDocs"><path d="M280.58,533.3569 C276.67,559.0769 271.2199,594.9647 267.3199,620.6747 " fill="none" id="GenerateHTML-to-AuditDocs" style="stroke:#181818;stroke-width:1.0;"/><polygon fill="#181818" points="266.42,626.6069,271.7245,618.3086,267.1699,621.6634,263.815,617.1088,266.42,626.6069" style="stroke:#181818;stroke-width:1.0;"/><text fill="#000000" font-family="Arial" font-size="13" lengthAdjust="spacing" textLength="84" x="275" y="593.0438">Produce Files</text></g><!--link Auditor to AuditDocs--><g id="link_Auditor_AuditDocs"><path d="M118.43,548.3069 C124.55,556.6169 131.55,565.0169 139,571.9769 C162.34,593.7969 187.4851,609.931 212.3451,623.631 " fill="none" id="Auditor-to-AuditDocs" style="stroke:#181818;stroke-width:1.0;"/><polygon fill="#181818" points="217.6,626.5269,211.6483,618.6798,213.2209,624.1136,207.7871,625.6863,217.6,626.5269" style="stroke:#181818;stroke-width:1.0;"/><text fill="#000000" font-family="Arial" font-size="13" lengthAdjust="spacing" textLength="43" x="168" y="593.0438">Review</text></g><!--SRC=[VLFDJiCm3BxtAQnUqLw00z9W0uOOcYWIPolpMBGshb9dcuIuyW0y8az2afOrT1MzLF7tOyVzskoqgT5Y1HKRLblB5O5OHrbpGjQqGLVABHjvGW_dKwknpBDCj9G41OchuVlp2-P7KauqctXQMMh82CR2AzlTfkH3bg4IjZ1rQ-tVtMb6Uogv9fjbDQeTllacqJQ7zmpyexYgsNWtoE-eyfOxA6fIUgDLz6zom0OwA213rNMn65FuyXZx3xDWPnN1tBWgQWBOrgBiD3jC9bVf2709CpwOad4zGkmw3qcfFj06pNvL0-WZsTlf8upiReMseR4zH23Kcw5aYQAsC3M69U77Qb8SkM1lwU_ODhv_MJx2hIwfvIUC81XwUbdRl9_hZ19qUL-06GhcNZW_YlNHyYC9whBviw0qbwFvCcHHkcbdh5pLisF8MZp0GssK7BHiuQOeu08UYYY9OVTE_rmYTGsPyFU0XH5wiv7KPIFX1D79DspOyjhvcFRhxNwnC-OpxJKT_4f-0000]--></g></svg>